<svg xmlns="http://www.w3.org/2000/svg" width="45.468" height="39.784" viewBox="0 0 45.468 39.784">
  <g id="Page-1" transform="translate(-4 -6)">
    <g id="icon-138-certificate" transform="translate(4 6)">
      <path id="certificate" d="M21.05,32.427v3.885H45.674a1.9,1.9,0,0,0,1.9-1.909V9.8a1.893,1.893,0,0,0-1.9-1.909H7.794A1.9,1.9,0,0,0,5.894,9.8V34.4a1.893,1.893,0,0,0,1.9,1.909h3.784V32.427a6.631,6.631,0,1,1,9.472,0Zm-7.578,1.352v7.458L16.314,38.4l2.842,2.842V33.779a6.647,6.647,0,0,1-5.683,0Zm-1.894,4.427H7.8A3.793,3.793,0,0,1,4,34.417V9.789A3.787,3.787,0,0,1,7.8,6H45.67a3.793,3.793,0,0,1,3.8,3.789V34.417a3.787,3.787,0,0,1-3.8,3.789H21.05v7.578l-4.736-4.736-4.736,4.736V38.206ZM9.683,15.472v1.894h34.1V15.472Zm17.05,5.683V23.05h17.05V21.156Zm5.683,5.683v1.894H43.784V26.839Zm-16.1,5.683a4.736,4.736,0,1,0-4.736-4.736,4.736,4.736,0,0,0,4.736,4.736Z" transform="translate(-4 -6)" fill="#001f60" fill-rule="evenodd"/>
    </g>
  </g>
</svg>